<svg width="840" height="326" xmlns="http://www.w3.org/2000/svg" xmlns:xlink="http://www.w3.org/1999/xlink" overflow="hidden"><defs><clipPath id="clip0"><rect x="225" y="196" width="840" height="326"/></clipPath></defs><g clip-path="url(#clip0)" transform="translate(-225 -196)"><rect x="226.5" y="197.5" width="838" height="324" stroke="#FFFFFF" stroke-width="1.33333" stroke-miterlimit="8" fill="#FFFFFF"/><path d="M795.973 266.671 824.083 435.371 820.137 436.028 792.027 267.329ZM831.645 432.083 825.068 453.455 811.917 435.37Z"/><path d="M1.80001-0.871768 84.2119 169.29 80.6119 171.034-1.80001 0.871768ZM90.5402 164.003 90.2578 186.362 72.5401 172.721Z" transform="matrix(-1 0 0 1 421.258 267)"/><path d="M1.23948-1.56962 77.3707 58.5489 74.8918 61.6881-1.23948 1.56962ZM80.7591 51.0309 90.2578 71.2738 68.3643 66.7271Z" transform="matrix(-1 0 0 1 338.258 266)"/><rect x="331" y="453" width="84" height="50" stroke="#000000" stroke-width="4" stroke-miterlimit="8" fill="#F8CBAD"/><text font-family="Cambria Math,Cambria Math_MSFontService,sans-serif" font-weight="400" font-size="32" transform="translate(362.282 489)">𝑰</text><rect x="632" y="453" width="156" height="50" stroke="#000000" stroke-width="4" stroke-miterlimit="8" fill="#C5E0B4"/><text font-family="Cambria Math,Cambria Math_MSFontService,sans-serif" font-weight="400" font-size="32" transform="translate(697.059 489)">𝑳</text><rect x="415" y="453" width="217" height="50" stroke="#000000" stroke-width="4" stroke-miterlimit="8" fill="#B4C7E7"/><text font-family="Cambria Math,Cambria Math_MSFontService,sans-serif" font-weight="400" font-size="32" transform="translate(507.235 489)">𝑲</text><path d="M639.839 264.215 663.23 319.026 659.551 320.596 636.161 265.785ZM669.803 314.046 668.455 336.367 651.408 321.896Z"/><rect x="0" y="0" width="156" height="50" stroke="#000000" stroke-width="4" stroke-miterlimit="8" fill="#C5E0B4" transform="matrix(-1 0 0 1 825 339)"/><text font-family="Cambria Math,Cambria Math_MSFontService,sans-serif" font-weight="400" font-size="32" transform="translate(732.303 375)">𝑷</text><rect x="0" y="0" width="217" height="50" stroke="#000000" stroke-width="4" stroke-miterlimit="8" fill="#FFE699" transform="matrix(-1 0 0 1 623 339)"/><text font-family="Cambria Math,Cambria Math_MSFontService,sans-serif" font-weight="400" font-size="32" transform="translate(500.525 375)">𝑭</text><rect x="0" y="0" width="217" height="49" stroke="#000000" stroke-width="4" stroke-miterlimit="8" fill="#FFE699" transform="matrix(-1 0 0 1 1042 455)"/><text font-family="Cambria Math,Cambria Math_MSFontService,sans-serif" font-weight="400" font-size="32" transform="translate(919.96 490)">𝑻</text><rect x="0" y="0" width="83" height="50" stroke="#000000" stroke-width="4" stroke-miterlimit="8" fill="#F8CBAD" transform="matrix(-1 0 0 1 908 339)"/><text font-family="Cambria Math,Cambria Math_MSFontService,sans-serif" font-weight="400" font-size="32" transform="translate(851.897 375)">𝑹</text><rect x="0" y="0" width="156" height="50" stroke="#000000" stroke-width="4" stroke-miterlimit="8" fill="#C5E0B4" transform="matrix(-1 0 0 1 406 339)"/><text font-family="Cambria Math,Cambria Math_MSFontService,sans-serif" font-weight="400" font-size="32" transform="translate(312.534 375)">𝑩</text><rect x="337" y="216" width="84" height="50" stroke="#000000" stroke-width="4" stroke-miterlimit="8" fill="#F8CBAD"/><text font-family="Cambria Math,Cambria Math_MSFontService,sans-serif" font-weight="400" font-size="32" transform="translate(364.625 251)">𝑮</text><rect x="638" y="216" width="156" height="49" stroke="#000000" stroke-width="4" stroke-miterlimit="8" fill="#C5E0B4"/><text font-family="Cambria Math,Cambria Math_MSFontService,sans-serif" font-weight="400" font-size="32" transform="translate(703.151 251)">𝑺</text><rect x="421" y="216" width="217" height="49" stroke="#000000" stroke-width="4" stroke-miterlimit="8" fill="#B4C7E7"/><text font-family="Cambria Math,Cambria Math_MSFontService,sans-serif" font-weight="400" font-size="32" transform="translate(510.994 251)">𝑴</text></g></svg>