<svg width="793" height="198" xmlns="http://www.w3.org/2000/svg" xmlns:xlink="http://www.w3.org/1999/xlink" overflow="hidden"><defs><clipPath id="clip0"><rect x="134" y="238" width="793" height="198"/></clipPath></defs><g clip-path="url(#clip0)" transform="translate(-134 -238)"><rect x="136" y="312" width="84" height="50" stroke="#000000" stroke-width="4" stroke-miterlimit="8" fill="#F8CBAD"/><text font-family="Cambria Math,Cambria Math_MSFontService,sans-serif" font-weight="400" font-size="32" transform="translate(163.796 348)">𝑨</text><rect x="220" y="312" width="321" height="50" stroke="#000000" stroke-width="4" stroke-miterlimit="8" fill="#FFE699"/><text font-family="Cambria Math,Cambria Math_MSFontService,sans-serif" font-weight="400" font-size="32" transform="translate(365.057 348)">𝑩</text><rect x="541" y="312" width="156" height="50" stroke="#000000" stroke-width="4" stroke-miterlimit="8" fill="#C5E0B4"/><text font-family="Cambria Math,Cambria Math_MSFontService,sans-serif" font-weight="400" font-size="32" transform="translate(605.544 348)">𝑪</text><rect x="697" y="312" width="218" height="50" stroke="#000000" stroke-width="4" stroke-miterlimit="8" fill="#B4C7E7"/><text font-family="Cambria Math,Cambria Math_MSFontService,sans-serif" font-weight="400" font-size="32" transform="translate(790.451 348)">𝑫</text><path d="M218.75 301 205.299 288.75 211.424 288.75C207.114 267.116 192.055 252 174.812 252L187.062 252C204.305 252 219.364 267.116 223.674 288.75L229.799 288.75Z" fill="#F8CBAD" fill-rule="evenodd"/><path d="M180.938 252.647C162.663 256.534 149.25 277.001 149.25 301L137 301C137 273.938 153.929 252 174.812 252 176.864 252 178.913 252.216 180.937 252.647Z" fill="#C7A38B" fill-rule="evenodd"/><path d="M180.938 252.647C162.663 256.534 149.25 277.001 149.25 301L137 301C137 273.938 153.929 252 174.812 252L187.062 252C204.305 252 219.364 267.116 223.674 288.75L229.799 288.75 218.75 301 205.299 288.75 211.424 288.75C207.114 267.116 192.055 252 174.812 252" stroke="#000000" stroke-width="4" stroke-miterlimit="8" fill="none" fill-rule="evenodd"/><path d="M318.75 49 301.536 36.75 307.661 36.75C289.842 15.1156 227.591-1.07178e-05 156.312-1.07178e-05L168.562 0C239.841 0 302.092 15.1156 319.911 36.75L326.036 36.75Z" fill="#FFE699" fill-rule="evenodd" transform="matrix(1 0 0 -1 220 421)"/><path d="M162.438 0.0376466C78.5561 1.06878 12.2501 22.6851 12.2501 49L0 49C-4.21407e-14 21.938 69.9835-1.05352e-14 156.312-2.10704e-14 158.355-3.16056e-14 160.397 0.0125464 162.437 0.0376318Z" fill="#CDB97B" fill-rule="evenodd" transform="matrix(1 0 0 -1 220 421)"/><path d="M162.438 0.0376466C78.5561 1.06878 12.2501 22.6851 12.2501 49L0 49C-4.21407e-14 21.938 69.9835-1.05352e-14 156.312-2.10704e-14L168.562 0C239.841 0 302.092 15.1156 319.911 36.75L326.036 36.75 318.75 49 301.536 36.75 307.661 36.75C289.842 15.1156 227.591-1.07178e-05 156.312-1.07178e-05" stroke="#000000" stroke-width="4" stroke-miterlimit="8" fill="none" fill-rule="evenodd" transform="matrix(1 0 0 -1 220 421)"/><path d="M695.75 301 681.14 288.75 687.265 288.75C678.794 267.116 649.199 252 615.313 252L627.563 252C661.449 252 691.044 267.116 699.515 288.75L705.64 288.75Z" fill="#C5E0B4" fill-rule="evenodd"/><path d="M621.437 252.167C582.902 254.268 553.25 275.504 553.25 301L541 301C541 273.938 574.271 252 615.312 252 617.357 252 619.4 252.056 621.437 252.167Z" fill="#9EB491" fill-rule="evenodd"/><path d="M621.437 252.167C582.902 254.268 553.25 275.504 553.25 301L541 301C541 273.938 574.271 252 615.312 252L627.563 252C661.449 252 691.044 267.116 699.515 288.75L705.64 288.75 695.75 301 681.14 288.75 687.265 288.75C678.794 267.116 649.199 252 615.313 252" stroke="#000000" stroke-width="4" stroke-miterlimit="8" fill="none" fill-rule="evenodd"/><path d="M216.75 49 201.156 36.7501 207.281 36.7501C195.275 15.1156 153.335 4.37185e-05 105.313 4.37185e-05L117.563 0C165.585 0 207.525 15.1156 219.531 36.75L225.656 36.7501Z" fill="#B4C7E7" fill-rule="evenodd" transform="matrix(1 0 0 -1 697 421)"/><path d="M111.437 0.0828951C55.7485 1.59244 12.2499 23.045 12.2499 49L0 49C-1.45774e-14 21.938 47.15 0 105.312 0 107.355 0 109.398 0.0276596 111.437 0.0829436Z" fill="#91A0BA" fill-rule="evenodd" transform="matrix(1 0 0 -1 697 421)"/><path d="M111.437 0.0828951C55.7485 1.59244 12.2499 23.045 12.2499 49L0 49C-1.45774e-14 21.938 47.15 0 105.312 0L117.563 0C165.585 0 207.525 15.1156 219.531 36.75L225.656 36.7501 216.75 49 201.156 36.7501 207.281 36.7501C195.275 15.1156 153.335 4.37185e-05 105.313 4.37185e-05" stroke="#000000" stroke-width="4" stroke-miterlimit="8" fill="none" fill-rule="evenodd" transform="matrix(1 0 0 -1 697 421)"/></g></svg>